<svg id="Layer_1" data-name="Layer 1" xmlns="http://www.w3.org/2000/svg" viewBox="0 0 242 50"><defs><style>.cls-1{fill:#f2385a;}.cls-2{fill:#36b1bf;}.cls-3{fill:#4ad9d9;}.cls-4{fill:#f5a503;}.cls-5{fill:#fff;fill-opacity:0.6;}.cls-6{fill:#353535;}</style></defs><title>Artboard 1</title><rect class="cls-1" x="16.22" y="28.72" width="17.66" height="17.66" transform="translate(69.31 46.38) rotate(135)"/><rect class="cls-2" x="28.71" y="16.23" width="17.66" height="17.66" transform="translate(81.8 16.23) rotate(135)"/><rect class="cls-3" x="16.22" y="3.74" width="17.66" height="17.66" transform="translate(51.65 3.75) rotate(135)"/><rect class="cls-4" x="3.73" y="16.23" width="17.66" height="17.66" transform="translate(39.16 33.89) rotate(135)"/><rect class="cls-5" x="16.22" y="16.23" width="17.66" height="17.66" transform="translate(60.48 25.06) rotate(135)"/><path class="cls-6" d="M97.47,5.63V44.3H93.54V13.36l-15.19,26H76.42L61.22,13.53V44.3H57.3V5.63h3.37L77.47,34.3,94.1,5.63Z"/><path class="cls-6" d="M106.31,29.77c0-8.62,6.3-14.75,14.81-14.75s14.75,6.13,14.75,14.75-6.25,14.81-14.75,14.81A14.34,14.34,0,0,1,106.31,29.77Zm25.58,0c0-6.79-4.59-11.33-10.77-11.33S110.29,23,110.29,29.77s4.64,11.33,10.83,11.33S131.89,36.57,131.89,29.77Z"/><path class="cls-6" d="M139.85,41l1.77-3.1A17.5,17.5,0,0,0,152,41.15c5.52,0,7.79-1.88,7.79-4.75,0-7.57-18.84-1.6-18.84-13.09,0-4.76,4.09-8.29,11.49-8.29,3.76,0,7.85,1.05,10.28,2.71L161,20.88a14.88,14.88,0,0,0-8.56-2.49c-5.25,0-7.57,2-7.57,4.81,0,7.84,18.84,1.93,18.84,13.09,0,5-4.42,8.29-12,8.29C146.86,44.58,142.22,43,139.85,41Z"/><path class="cls-6" d="M192.84,26.29v18h-3.76V39.77c-1.77,3-5.2,4.81-10,4.81-6.58,0-10.61-3.43-10.61-8.46,0-4.47,2.87-8.23,11.22-8.23h9.22V26.12c0-5-2.82-7.68-8.23-7.68A14.81,14.81,0,0,0,171,21.87l-1.77-2.93A18.5,18.5,0,0,1,181.07,15C188.58,15,192.84,18.78,192.84,26.29Zm-3.93,9.28V30.82H179.8c-5.64,0-7.46,2.21-7.46,5.19,0,3.38,2.7,5.48,7.35,5.48C184.11,41.49,187.37,39.39,188.91,35.57Z"/><path class="cls-6" d="M202.62,6.07a2.83,2.83,0,0,1,2.87-2.76A2.78,2.78,0,0,1,208.36,6a2.87,2.87,0,0,1-5.74.06Zm.88,9.17h3.92V44.3H203.5Z"/><path class="cls-6" d="M215.44,29.77c0-8.67,6.29-14.75,15-14.75,4.92,0,9.06,1.93,11.38,5.74l-2.93,2a9.9,9.9,0,0,0-8.45-4.31c-6.36,0-11,4.54-11,11.33s4.64,11.33,11,11.33a9.83,9.83,0,0,0,8.45-4.26l2.93,2c-2.32,3.76-6.46,5.75-11.38,5.75C221.73,44.58,215.44,38.45,215.44,29.77Z"/></svg>